<?xml version="1.0" encoding="UTF-8"?>
<svg width="247px" height="84px" viewBox="0 0 247 84" version="1.1" xmlns="http://www.w3.org/2000/svg" xmlns:xlink="http://www.w3.org/1999/xlink">
    <title>factor-energia/logo/factor-energia_principal</title>
    <g id="factor-energia/logo/factor-energia_principal" stroke="none" stroke-width="1" fill="none" fill-rule="evenodd">
        <g id="clipboard" fill-rule="nonzero">
            <path d="M30.6803226,4.90451613 C39.9948387,0.928064516 50.61,-0.961935484 60.513871,1.82225806 C63.0677419,3.17032258 65.7503226,4.21354839 68.636129,4.57935484 C65.0932258,4.91806452 61.5164516,5.06709677 57.9667742,4.79612903 C53.7058065,3.61064516 49.0722581,4.39645161 45.1093548,6.22548387 C36.7770968,8.63709677 29.0951613,13.4467742 23.5809677,20.1803226 C17.9990323,27.6658065 13.7854839,36.3232258 12.2206452,45.5767742 C11.4754839,49.8783871 12.0919355,54.2477419 11.793871,58.5764516 C12.1935484,56.5983871 12.4374194,54.5864516 12.5051613,52.5677419 C13.0606452,57.0116129 12.986129,61.5029032 13.2367742,65.9670968 C12.4374194,65.9603226 11.6448387,65.9467742 10.8522581,66.0145161 C10.1748387,63.7654839 10.2290323,61.3674194 9.49741935,59.1319355 C8.2916129,46.3625806 11.5093548,32.97 19.2658065,22.6325806 C24.4548387,15.8787097 31.1680645,9.96483871 39.1412903,6.77419355 C43.5648387,4.96548387 48.1780645,3.71903226 52.8251613,2.6216129 C44.8790323,1.59193548 36.8448387,3.86806452 29.7387097,7.33645161 C27.3,8.67096774 24.6919355,9.93774194 22.9712903,12.2070968 C22.5445161,12.6406452 22.1312903,13.0877419 21.7045161,13.5280645 C20.5529032,13.7245161 19.4487097,14.1106452 18.4529032,14.7270968 C15.1809677,16.2241935 12.4306452,19.2454839 8.55580645,18.9 C9.42967742,17.7619355 10.1274194,16.0887097 11.7667742,15.9803226 C14.0632258,15.6619355 16.3258065,14.9235484 18.0125806,13.2706452 C21.8941935,10.0122581 25.9587097,6.84870968 30.6803226,4.90451613 Z" id="Path" fill="#E6E7F0"></path>
            <path d="M29.7387097,7.33645161 C36.8448387,3.86806452 44.8790323,1.59193548 52.8251613,2.6216129 C48.1780645,3.71903226 43.5648387,4.96548387 39.1412903,6.77419355 C38.6603226,6.53709677 37.7051613,6.06290323 37.2309677,5.82580645 C34.3790323,6.76741935 31.4932258,7.70903226 28.9054839,9.26709677 C26.9477419,10.29 25.2880645,12.0445161 22.9712903,12.2070968 C24.6919355,9.93774194 27.3,8.67096774 29.7387097,7.33645161 Z" id="Path" fill="#8F92BD"></path>
            <path d="M45.1093548,6.22548387 C49.0722581,4.39645161 53.7058065,3.61064516 57.9667742,4.79612903 C50.7183871,5.83258065 43.6596774,8.38645161 37.5154839,12.3764516 C36.2825806,13.2029032 34.9548387,13.86 33.5864516,14.4222581 C37.1835484,10.4322581 42.3048387,8.21709677 47.2093548,6.28645161 C46.6877419,6.27290323 45.6377419,6.23903226 45.1093548,6.22548387 L45.1093548,6.22548387 Z" id="Path" fill="#CFD1E5"></path>
            <path d="M28.9054839,9.26709677 C31.4932258,7.70903226 34.3790323,6.76741935 37.2309677,5.82580645 C37.7051613,6.06290323 38.6603226,6.53709677 39.1412903,6.77419355 C31.1680645,9.96483871 24.4548387,15.8787097 19.2658065,22.6325806 C11.5093548,32.97 8.2916129,46.3625806 9.49741935,59.1319355 C8.94193548,61.0693548 9.44322581,63.033871 9.87677419,64.9374194 C9.31451613,64.8087097 8.75225806,64.68 8.18322581,64.5580645 C7.26870968,61.3606452 5.72419355,58.2716129 5.73774194,54.8845161 C5.71741935,52.8319355 5.10096774,50.8267742 5.16870968,48.7809677 C5.55483871,45.0958065 6.00870968,41.4174194 6.90290323,37.8203226 C8.15612903,33.6474194 10.1274194,29.7251613 12.18,25.8977419 C13.5077419,23.7841935 14.6119355,21.5216129 16.2309677,19.6112903 C17.9516129,17.4909677 20.0041935,15.6687097 21.7045161,13.5280645 C22.1312903,13.0877419 22.5445161,12.6406452 22.9712903,12.2070968 C25.2880645,12.0445161 26.9477419,10.29 28.9054839,9.26709677 L28.9054839,9.26709677 Z" id="Path" fill="#485CA3"></path>
            <path d="M23.5809677,20.1803226 C29.0951613,13.4467742 36.7770968,8.63709677 45.1093548,6.22548387 C45.6377419,6.23903226 46.6877419,6.27290323 47.2093548,6.28645161 C42.3048387,8.21709677 37.1835484,10.4322581 33.5864516,14.4222581 C21.6029032,23.3641935 13.6229032,37.6441935 12.5051613,52.5677419 C12.4374194,54.5864516 12.1935484,56.5983871 11.793871,58.5764516 C12.0919355,54.2477419 11.4754839,49.8783871 12.2206452,45.5767742 C13.7854839,36.3232258 17.9990323,27.6658065 23.5809677,20.1803226 Z" id="Path" fill="#9295C4"></path>
            <path d="M18.4529032,14.7270968 C19.4487097,14.1106452 20.5529032,13.7245161 21.7045161,13.5280645 C20.0041935,15.6687097 17.9516129,17.4909677 16.2309677,19.6112903 C14.6119355,21.5216129 13.5077419,23.7841935 12.18,25.8977419 C11.8548387,25.0035484 11.2654839,24.1635484 11.2045161,23.1948387 C12.9319355,19.8416129 16.0683871,17.5722581 18.4529032,14.7270968 L18.4529032,14.7270968 Z" id="Path" fill="#9DA2CC"></path>
            <path d="M8.55580645,18.9 C12.4306452,19.2454839 15.1809677,16.2241935 18.4529032,14.7270968 C16.0683871,17.5722581 12.9319355,19.8416129 11.2045161,23.1948387 C11.2654839,24.1635484 11.8548387,25.0035484 12.18,25.8977419 C10.1274194,29.7251613 8.15612903,33.6474194 6.90290323,37.8203226 C6.11709677,37.2377419 5.33129032,36.6551613 4.55225806,36.0658065 C4.54548387,39.6493548 3.41419355,43.1245161 3.68516129,46.7216129 C3.37354839,54.6812903 4.56580645,62.9187097 8.61677419,69.8893548 C9.69387097,71.6167742 11.2180645,72.9919355 12.6135484,74.4551613 C12.5390323,73.2832258 12.4441935,72.1112903 12.3358065,70.946129 C14.456129,75.2070968 15.9532258,79.7593548 18.1412903,84 L15.6822581,84 C14.7474194,81.5274194 12.7083871,79.7525806 11.2587097,77.6051613 C5.20935484,69.0493548 2.03903226,58.5019355 2.26935484,48.0425806 C2.2083871,45.4277419 0.359032258,43.26 0.291290323,40.6587097 C0.230322581,38.3893548 0.00677419355,36.0454839 0.684193548,33.8370968 C2.43193548,28.4516129 5.22967742,23.4658065 8.55580645,18.9 L8.55580645,18.9 Z" id="Path" fill="#C9CBE2"></path>
            <path d="M58.2783871,27.8080645 C60.2496774,26.9477419 62.4987097,27.1509677 64.5851613,27.3880645 C64.5174194,28.5396774 64.4022581,29.6980645 64.1922581,30.836129 C63.2574194,30.6464516 62.336129,30.6735484 61.4216129,30.9106452 C60.9745161,31.8996774 60.6967742,32.9293548 60.7848387,34.0267742 C62.0245161,34.0064516 63.2709677,34.0267742 64.5106452,34.0741935 C64.5106452,35.2325806 64.503871,36.3909677 64.5174194,37.5493548 C63.2777419,37.5290323 62.0448387,37.5358065 60.8119355,37.5696774 C60.7983871,41.3158065 60.8525806,45.0687097 60.7848387,48.8148387 C59.1251613,48.8351613 57.4654839,48.8419355 55.8058065,48.8216129 C55.7651613,45.0687097 55.7854839,41.3158065 55.7854839,37.5696774 C54.7558065,37.5493548 53.726129,37.5290323 52.7032258,37.5290323 C52.7167742,36.3774194 52.71,35.2258065 52.6964516,34.0741935 C53.7532258,34.0470968 54.8167742,34.02 55.8803226,34.0064516 C55.7651613,31.743871 56.0564516,29.0070968 58.2783871,27.8080645 L58.2783871,27.8080645 Z" id="Path" fill="#0F4D99"></path>
            <path d="M226.129355,28.0858065 C227.13871,28.0993548 228.148065,28.0587097 229.157419,28.0587097 C229.164194,29.0409677 229.177742,30.03 229.19129,31.0190323 C228.168387,31.0529032 227.159032,31.0393548 226.142903,30.9716129 C226.142903,30.0096774 226.142903,29.0477419 226.129355,28.0858065 L226.129355,28.0858065 Z" id="Path" fill="#124E9D"></path>
            <path d="M101.396129,30.5041935 C103.137097,30.1858065 104.830645,29.6574194 106.476774,29.013871 C106.476774,30.6803226 106.483548,32.3467742 106.503871,34.0132258 C107.682581,34.02 108.854516,34.0335484 110.04,34.053871 C110.033226,35.2122581 110.026452,36.3774194 110.019677,37.5358065 C108.840968,37.5358065 107.669032,37.5425806 106.497097,37.5493548 C106.544516,40.0083871 106.34129,42.4877419 106.652903,44.94 C107.472581,46.0848387 108.922258,45.5632258 110.107742,45.6106452 C110.114516,46.7080645 110.114516,47.8054839 110.114516,48.9096774 C107.31,49.0045161 103.177742,49.8241935 101.795806,46.586129 C100.840645,43.7003226 101.592581,40.5503226 101.328387,37.556129 C100.359677,37.5493548 99.3909677,37.5358065 98.4222581,37.5290323 C98.4358065,36.363871 98.4358065,35.1987097 98.4425806,34.0335484 C99.4112903,34.0335484 100.38,34.0470968 101.355484,34.0674194 C101.375806,32.8819355 101.396129,31.6896774 101.396129,30.5041935 L101.396129,30.5041935 Z" id="Path" fill="#0E4E99"></path>
            <path d="M68.3109677,34.5009677 C71.6370968,33.6203226 75.356129,32.9903226 78.5670968,34.6025806 C79.6916129,35.4290323 80.6467742,36.573871 80.9990323,37.9490323 C81.2496774,41.5664516 80.9380645,45.1974194 81.2496774,48.8148387 C79.7525806,48.8351613 78.2622581,48.8419355 76.7719355,48.8351613 C76.7516129,48.2729032 76.7177419,47.1416129 76.6974194,46.5793548 C74.9090323,49.0587097 71.4609677,49.8580645 68.7716129,48.3677419 C65.9603226,47.1009677 65.6283871,42.6977419 68.0806452,40.916129 C70.4787097,39.093871 73.71,39.3919355 76.5416129,39.5003226 C75.7693548,35.7203226 70.9190323,37.0954839 68.3177419,37.9558065 C68.2906452,36.8041935 68.2906452,35.6525806 68.3109677,34.5009677 M71.8064516,42.5758065 C71.1154839,43.2329032 71.2103226,44.133871 71.3187097,44.9941935 C73.3916129,46.8706452 76.5348387,44.7909677 76.4941935,42.2506452 C74.9293548,42.1693548 73.2832258,41.9322581 71.8064516,42.5758065 L71.8064516,42.5758065 Z" id="Shape" fill="#0D4D9A"></path>
            <path d="M116.827742,34.3180645 C121.048065,32.5567742 127.016129,33.9251613 128.824839,38.4706452 C129.57,41.2277419 129.468387,44.5741935 127.280323,46.6674194 C123.967742,49.7429032 118.290968,49.9393548 114.748065,47.1687097 C110.527742,43.8154839 111.598065,36.0725806 116.827742,34.3180645 M118.412903,37.9083871 C117.017419,39.9812903 116.983548,42.873871 118.487419,44.8993548 C119.754194,45.4345161 121.156452,45.8612903 122.450323,45.0958065 C124.631613,43.3887097 124.604516,39.7780645 122.761935,37.8406452 C121.427419,36.8380645 119.774516,37.1225806 118.412903,37.9083871 L118.412903,37.9083871 Z" id="Shape" fill="#0D4D9A"></path>
            <path d="M87.393871,35.1919355 C90.1509677,33.2341935 93.7683871,33.3358065 96.8845161,34.2570968 C96.9929032,35.4832258 96.5525806,36.6890323 96.5187097,37.9219355 C94.8658065,37.5696774 92.9825806,36.8651613 91.4245161,37.8948387 C89.1009677,39.1616129 88.8096774,42.9822581 91.0587097,44.4590323 C92.7251613,45.8545161 95.1029032,45.2448387 97.02,44.8045161 C97.02,45.9967742 97.0403226,47.1890323 97.0809677,48.3812903 C93.6532258,49.5329032 89.3380645,49.4787097 86.5606452,46.8774194 C83.2345161,43.856129 83.5393548,37.6441935 87.393871,35.1919355 L87.393871,35.1919355 Z" id="Path" fill="#0D4D99"></path>
            <path d="M132.306774,34.0674194 C133.858065,34.0267742 135.402581,34.02 136.953871,34.0267742 C136.994516,34.8735484 137.041935,35.7135484 137.096129,36.5535484 C138.132581,34.23 140.625484,33.0783871 143.098065,33.7016129 C143.037097,35.07 143.003226,36.4383871 142.996452,37.8067742 C141.174194,37.6780645 138.884516,37.7932258 137.976774,39.6832258 C136.845484,42.5893548 137.570323,45.78 137.319677,48.8080645 C135.646452,48.8419355 133.973226,48.9029032 132.306774,48.686129 C132.340645,43.8087097 132.327097,38.9380645 132.306774,34.0674194 L132.306774,34.0674194 Z" id="Path" fill="#0E4D99"></path>
            <path d="M149.43871,34.3112903 C151.545484,33.9116129 154.160323,33.5864516 155.860645,35.1919355 C157.960645,36.783871 158.285806,39.7170968 158.272258,42.1693548 C154.830968,42.1354839 151.389677,42.1151613 147.948387,42.2032258 C147.96871,44.1609677 149.249032,46.023871 151.125484,46.6606452 C153.211935,47.5277419 155.332258,46.443871 157.249355,45.6512903 C157.249355,46.2880645 157.242581,47.5480645 157.242581,48.1780645 C153.794516,49.5193548 148.944194,49.7632258 146.586774,46.376129 C143.992258,42.6232258 144.839032,36.1267742 149.43871,34.3112903 M147.96871,40.1370968 C150.475161,40.1303226 152.974839,40.1370968 155.48129,40.1370968 C155.664194,38.0709677 154.01129,35.8896774 151.802903,36.0996774 C149.60129,35.943871 148.070323,38.1251613 147.96871,40.1370968 Z" id="Shape" fill="#0B4D9C"></path>
            <path d="M165.134516,36.54 C166.489355,33.9590323 169.774839,33.566129 172.335484,34.3112903 C174.09,35.3274194 175.200968,37.2648387 175.167097,39.2903226 C175.207742,42.4741935 175.207742,45.6648387 175.160323,48.8419355 C174.293226,48.8351613 173.432903,48.8216129 172.572581,48.8148387 C172.430323,45.4412903 172.796129,42.0406452 172.308387,38.6874194 C172.267742,37.7187097 171.549677,37.0345161 170.987419,36.33 C169.077097,35.8151613 166.834839,36.2216129 165.872903,38.1251613 C164.470645,41.5325806 165.256452,45.2651613 165.012581,48.8351613 C164.165806,48.8283871 163.319032,48.8283871 162.472258,48.8283871 C162.445161,43.9577419 162.397742,39.0870968 162.472258,34.2164516 C163.081935,34.2164516 164.308065,34.2232258 164.917742,34.2232258 C164.971935,34.7990323 165.080323,35.9574194 165.134516,36.54 L165.134516,36.54 Z" id="Path" fill="#0E4D9B"></path>
            <path d="M180.539032,36.9058065 C182.429032,33.6474194 187.414839,32.9835484 190.253226,35.313871 C192.183871,37.0277419 192.319355,39.7712903 192.610645,42.1558065 C189.108387,42.1829032 185.612903,42.0948387 182.117419,42.1964516 C182.286774,43.7206452 182.855806,45.2787097 184.237742,46.0983871 C186.385161,47.7174194 189.250645,46.7893548 191.350645,45.5767742 C191.343871,46.233871 191.330323,47.5412903 191.323548,48.1983871 C188.214194,49.4109677 184.29871,49.6074194 181.56871,47.4125806 C178.947097,44.7029032 178.574516,40.0896774 180.539032,36.9058065 M182.171613,40.1235484 C184.67129,40.1303226 187.170968,40.143871 189.670645,40.1370968 C189.75871,38.2403226 188.37,35.9303226 186.242903,36.1335484 C183.993871,35.8083871 182.219032,38.0303226 182.171613,40.1235484 L182.171613,40.1235484 Z" id="Shape" fill="#0B4D9B"></path>
            <path d="M196.620968,34.2367742 C197.433871,34.2367742 198.246774,34.2435484 199.059677,34.2435484 C199.174839,34.7787097 199.405161,35.8625806 199.520323,36.3977419 C200.082581,34.1216129 202.704194,33.6948387 204.682258,34.1012903 C204.689032,34.8464516 204.702581,35.5983871 204.716129,36.3435484 C202.616129,35.8151613 200.21129,36.9058065 199.689677,39.1141935 C198.883548,42.2777419 199.472903,45.5970968 199.249355,48.8216129 C198.382258,48.8216129 197.521935,48.8283871 196.654839,48.8283871 C196.600645,43.9645161 196.661613,39.1006452 196.620968,34.2367742 L196.620968,34.2367742 Z" id="Path" fill="#104C97"></path>
            <path d="M208.922903,36.2690323 C211.083871,33.2206452 216.455806,33.0445161 218.488065,36.33 C218.494839,35.8083871 218.501613,34.7583871 218.508387,34.23 C219.145161,34.23 220.405161,34.2367742 221.041935,34.2367742 C220.967419,38.8567742 221.028387,43.4767742 221.008065,48.0967742 C221.021613,50.4 220.181613,52.92 218.068065,54.1122581 C215.033226,55.6025806 211.476774,55.1080645 208.367419,54.1258065 C208.435161,53.3129032 208.496129,52.4932258 208.563871,51.6803226 C210.934839,52.6896774 213.691935,53.4483871 216.178065,52.3983871 C218.10871,51.1790323 218.562581,48.753871 218.284839,46.6403226 C215.968065,49.1603226 211.558065,49.5532258 209.112581,47.0196774 C206.551935,44.066129 206.599355,39.3377419 208.922903,36.2690323 M212.946774,36.2554839 C209.491935,37.7390323 209.112581,43.1990323 211.68,45.6919355 C213.624194,47.5548387 216.963871,46.41 217.830968,43.9916129 C219.504194,40.773871 217.228065,34.9345161 212.946774,36.2554839 L212.946774,36.2554839 Z" id="Shape" fill="#0C4E9B"></path>
            <path d="M235.227097,35.1174194 C237.550645,33.9454839 240.253548,33.6948387 242.780323,34.3316129 C244.690645,35.1716129 245.720323,37.2241935 245.7,39.2496774 C245.727097,42.4403226 245.720323,45.6377419 245.706774,48.8351613 C244.94129,48.8283871 244.175806,48.8283871 243.417097,48.8283871 C243.410323,48.3270968 243.396774,47.3380645 243.383226,46.8367742 C241.472903,49.4109677 237.652258,49.7158065 235.023871,48.1374194 C233.154194,46.4845161 232.910323,43.4090323 234.725806,41.6274194 C237.022258,39.6832258 240.212903,39.7374194 243.058065,39.8254839 C243.091935,38.5316129 242.753226,37.1225806 241.574516,36.3977419 C239.433871,35.8219355 237.001935,36.0793548 235.301613,37.59 C235.267742,36.7635484 235.240645,35.943871 235.227097,35.1174194 M236.263548,44.0119355 C235.877419,46.233871 238.614194,47.6225806 240.470323,46.7419355 C242.732903,46.3083871 243.288387,43.7612903 243.017419,41.7967742 C240.687097,41.7087097 237.435484,41.5122581 236.263548,44.0119355 L236.263548,44.0119355 Z" id="Shape" fill="#0E4C9A"></path>
            <path d="M226.38,34.2232258 C227.280968,34.2232258 228.181935,34.23 229.089677,34.2435484 C229.035484,39.1006452 229.103226,43.9645161 229.062581,48.8216129 C228.181935,48.8283871 227.30129,48.8283871 226.420645,48.8216129 C226.339355,43.9577419 226.400323,39.0870968 226.38,34.2232258 L226.38,34.2232258 Z" id="Path" fill="#0F4E9E"></path>
            <path d="M4.55225806,36.0658065 C5.33129032,36.6551613 6.11709677,37.2377419 6.90290323,37.8203226 C6.00870968,41.4174194 5.55483871,45.0958065 5.16870968,48.7809677 C5.10096774,50.8267742 5.71741935,52.8319355 5.73774194,54.8845161 C5.72419355,58.2716129 7.26870968,61.3606452 8.18322581,64.5580645 C8.75225806,64.68 9.31451613,64.8087097 9.87677419,64.9374194 C9.44322581,63.033871 8.94193548,61.0693548 9.49741935,59.1319355 C10.2290323,61.3674194 10.1748387,63.7654839 10.8522581,66.0145161 C11.306129,67.6674194 11.7803226,69.3203226 12.3358065,70.946129 C12.4441935,72.1112903 12.5390323,73.2832258 12.6135484,74.4551613 C11.2180645,72.9919355 9.69387097,71.6167742 8.61677419,69.8893548 C4.56580645,62.9187097 3.37354839,54.6812903 3.68516129,46.7216129 C3.41419355,43.1245161 4.54548387,39.6493548 4.55225806,36.0658065 L4.55225806,36.0658065 Z" id="Path" fill="#9095C1"></path>
        </g>
    </g>
</svg>